<svg xmlns="http://www.w3.org/2000/svg" viewBox="0 0 24 24" width="24" height="24" fill="#E1306C">
  <path d="M12 2.163c3.204 0 3.584.012 4.85.07 1.17.056 1.97.24 2.43.403a4.92 4.92 0 011.775 1.03 4.92 4.92 0 011.03 1.775c.163.46.347 1.26.403 2.43.058 1.266.07 1.646.07 4.85s-.012 3.584-.07 4.85c-.056 1.17-.24 1.97-.403 2.43a4.92 4.92 0 01-1.03 1.775 4.92 4.92 0 01-1.775 1.03c-.46.163-1.26.347-2.43.403-1.266.058-1.646.07-4.85.07s-3.584-.012-4.85-.07c-1.17-.056-1.97-.24-2.43-.403a4.92 4.92 0 01-1.775-1.03 4.92 4.92 0 01-1.03-1.775c-.163-.46-.347-1.26-.403-2.43C2.175 15.747 2.163 15.367 2.163 12s.012-3.584.07-4.85c.056-1.17.24-1.97.403-2.43a4.92 4.92 0 011.03-1.775 4.92 4.92 0 011.775-1.03c.46-.163 1.26-.347 2.43-.403C8.416 2.175 8.796 2.163 12 2.163zm0-2.163C8.741 0 8.332.013 7.052.072 5.765.13 4.635.307 3.678.635 2.64.979 1.756 1.548 1.02 2.284.284 3.02-.285 3.904-.63 4.942c-.328.957-.505 2.087-.563 3.374C-.013 8.332 0 8.741 0 12c0 3.259.013 3.668.072 4.948.058 1.287.235 2.417.563 3.374.345 1.038.914 1.922 1.65 2.658.736.736 1.62 1.305 2.658 1.65.957.328 2.087.505 3.374.563C8.332 23.987 8.741 24 12 24s3.668-.013 4.948-.072c1.287-.058 2.417-.235 3.374-.563a6.958 6.958 0 002.658-1.65 6.958 6.958 0 001.65-2.658c.328-.957.505-2.087.563-3.374.058-1.28.072-1.689.072-4.948s-.013-3.668-.072-4.948c-.058-1.287-.235-2.417-.563-3.374a6.958 6.958 0 00-1.65-2.658 6.958 6.958 0 00-2.658-1.65c-.957-.328-2.087-.505-3.374-.563C15.668.013 15.259 0 12 0zm0 5.838a6.162 6.162 0 100 12.324 6.162 6.162 0 000-12.324zm0 10.162a3.999 3.999 0 110-7.998 3.999 3.999 0 010 7.998zm6.406-11.845a1.44 1.44 0 11-2.881 0 1.44 1.44 0 012.881 0z"></path>
</svg>
