<svg xmlns="http://www.w3.org/2000/svg" viewBox="0 0 24 24" width="24" height="24">
  <path fill="#69C9D0" d="M12 0c-.414 0-.75.336-.75.75v14.25c0 2.346-1.903 4.25-4.25 4.25-2.347 0-4.25-1.904-4.25-4.25S4.653 10 7 10c.414 0 .75-.336.75-.75V4.06c2.09.437 3.76 1.91 4.75 3.69v5.25c0 2.346-1.903 4.25-4.25 4.25-2.347 0-4.25-1.904-4.25-4.25S4.653 10 7 10c.414 0 .75-.336.75-.75V0h4.5z"></path>
  <path fill="#EE1D52" d="M12 0h-1.5v14.25c0 2.346-1.903 4.25-4.25 4.25-2.347 0-4.25-1.904-4.25-4.25S4.653 10 7 10c.414 0 .75-.336.75-.75V0h4.5z"></path>
</svg>
